<?xml version="1.0" encoding="UTF-8" standalone="no"?>
<!-- Created with Inkscape (http://www.inkscape.org/) -->

<svg
   xmlns:dc="http://purl.org/dc/elements/1.1/"
   xmlns:cc="http://creativecommons.org/ns#"
   xmlns:rdf="http://www.w3.org/1999/02/22-rdf-syntax-ns#"
   xmlns:svg="http://www.w3.org/2000/svg"
   xmlns="http://www.w3.org/2000/svg"
   xmlns:sodipodi="http://sodipodi.sourceforge.net/DTD/sodipodi-0.dtd"
   xmlns:inkscape="http://www.inkscape.org/namespaces/inkscape"
   width="210mm"
   height="297mm"
   viewBox="0 0 210 297"
   version="1.1"
   id="svg8"
   inkscape:version="0.92.2 5c3e80d, 2017-08-06"
   sodipodi:docname="logo.svg">
  <defs
     id="defs2">
    <inkscape:path-effect
       effect="bspline"
       id="path-effect1146"
       is_visible="true"
       weight="33.333333"
       steps="2"
       helper_size="0"
       apply_no_weight="true"
       apply_with_weight="true"
       only_selected="false" />
  </defs>
  <sodipodi:namedview
     id="base"
     pagecolor="#ffffff"
     bordercolor="#666666"
     borderopacity="1.0"
     inkscape:pageopacity="0.0"
     inkscape:pageshadow="2"
     inkscape:zoom="0.365625"
     inkscape:cx="291.84797"
     inkscape:cy="720.52457"
     inkscape:document-units="mm"
     inkscape:current-layer="layer1"
     showgrid="false"
     inkscape:measure-start="0,0"
     inkscape:measure-end="0,0"
     inkscape:window-width="1440"
     inkscape:window-height="801"
     inkscape:window-x="0"
     inkscape:window-y="1"
     inkscape:window-maximized="1" />
  <metadata
     id="metadata5">
    <rdf:RDF>
      <cc:Work
         rdf:about="">
        <dc:format>image/svg+xml</dc:format>
        <dc:type
           rdf:resource="http://purl.org/dc/dcmitype/StillImage" />
        <dc:title></dc:title>
      </cc:Work>
    </rdf:RDF>
  </metadata>
  <g
     inkscape:label="Layer 1"
     inkscape:groupmode="layer"
     id="layer1">
    <g
       id="g1090"
       transform="matrix(1,0,0,-1,-72.359436,217.78366)">
      <rect
         y="38.780354"
         x="115.83415"
         height="42.333332"
         width="0.37797621"
         id="rect1086"
         style="fill:#3d98d3;fill-opacity:1;stroke:#3d98d3;stroke-width:3.9690001;stroke-linecap:round;stroke-linejoin:round;stroke-miterlimit:4;stroke-dasharray:none;stroke-opacity:1" />
      <circle
         style="fill:#36a9f3;fill-opacity:1;stroke:#3d98d3;stroke-width:3.9690001;stroke-linecap:round;stroke-linejoin:round;stroke-miterlimit:4;stroke-dasharray:none;stroke-opacity:1"
         id="circle1088"
         cx="116.0387"
         cy="35.440472"
         r="1.8898809" />
    </g>
    <g
       transform="matrix(1,0,0,-1,-60.642174,231.01283)"
       id="g1096">
      <rect
         style="fill:#3d98d3;fill-opacity:1;stroke:#3d98d3;stroke-width:3.9690001;stroke-linecap:round;stroke-linejoin:round;stroke-miterlimit:4;stroke-dasharray:none;stroke-opacity:1"
         id="rect1092"
         width="0.37797621"
         height="42.333332"
         x="115.83415"
         y="38.780354" />
      <circle
         r="1.8898809"
         cy="35.440472"
         cx="116.0387"
         id="circle1094"
         style="fill:#36a9f3;fill-opacity:1;stroke:#3d98d3;stroke-width:3.9690001;stroke-linecap:round;stroke-linejoin:round;stroke-miterlimit:4;stroke-dasharray:none;stroke-opacity:1" />
    </g>
    <g
       id="g1102"
       transform="matrix(1,0,0,-1,-49.680864,223.4533)">
      <rect
         y="38.780354"
         x="115.83415"
         height="42.333332"
         width="0.37797621"
         id="rect1098"
         style="fill:#3d98d3;fill-opacity:1;stroke:#3d98d3;stroke-width:3.9690001;stroke-linecap:round;stroke-linejoin:round;stroke-miterlimit:4;stroke-dasharray:none;stroke-opacity:1" />
      <circle
         style="fill:#36a9f3;fill-opacity:1;stroke:#3d98d3;stroke-width:3.9690001;stroke-linecap:round;stroke-linejoin:round;stroke-miterlimit:4;stroke-dasharray:none;stroke-opacity:1"
         id="circle1100"
         cx="116.0387"
         cy="35.440472"
         r="1.8898809" />
    </g>
    <g
       transform="matrix(1,0,0,-1,-39.475507,207.95628)"
       id="g1108">
      <rect
         style="fill:#3d98d3;fill-opacity:1;stroke:#3d98d3;stroke-width:3.9690001;stroke-linecap:round;stroke-linejoin:round;stroke-miterlimit:4;stroke-dasharray:none;stroke-opacity:1"
         id="rect1104"
         width="0.37797621"
         height="42.333332"
         x="115.83415"
         y="38.780354" />
      <circle
         r="1.8898809"
         cy="35.440472"
         cx="116.0387"
         id="circle1106"
         style="fill:#36a9f3;fill-opacity:1;stroke:#3d98d3;stroke-width:3.9690001;stroke-linecap:round;stroke-linejoin:round;stroke-miterlimit:4;stroke-dasharray:none;stroke-opacity:1" />
    </g>
    <g
       id="g1066">
      <rect
         style="fill:#3d98d3;fill-opacity:1;stroke:#3d98d3;stroke-width:3.9690001;stroke-linecap:round;stroke-linejoin:round;stroke-miterlimit:4;stroke-dasharray:none;stroke-opacity:1"
         id="rect1031"
         width="0.37797621"
         height="42.333332"
         x="115.83415"
         y="38.780354" />
      <circle
         r="1.8898809"
         cy="35.440472"
         cx="116.0387"
         id="path1062"
         style="fill:#36a9f3;fill-opacity:1;stroke:#3d98d3;stroke-width:3.9690001;stroke-linecap:round;stroke-linejoin:round;stroke-miterlimit:4;stroke-dasharray:none;stroke-opacity:1" />
    </g>
    <g
       id="g1072"
       transform="translate(11.717262,-13.229167)">
      <rect
         y="38.780354"
         x="115.83415"
         height="42.333332"
         width="0.37797621"
         id="rect1068"
         style="fill:#3d98d3;fill-opacity:1;stroke:#3d98d3;stroke-width:3.9690001;stroke-linecap:round;stroke-linejoin:round;stroke-miterlimit:4;stroke-dasharray:none;stroke-opacity:1" />
      <circle
         style="fill:#36a9f3;fill-opacity:1;stroke:#3d98d3;stroke-width:3.9690001;stroke-linecap:round;stroke-linejoin:round;stroke-miterlimit:4;stroke-dasharray:none;stroke-opacity:1"
         id="circle1070"
         cx="116.0387"
         cy="35.440472"
         r="1.8898809" />
    </g>
    <g
       transform="translate(22.678572,-5.6696432)"
       id="g1078">
      <rect
         style="fill:#3d98d3;fill-opacity:1;stroke:#3d98d3;stroke-width:3.9690001;stroke-linecap:round;stroke-linejoin:round;stroke-miterlimit:4;stroke-dasharray:none;stroke-opacity:1"
         id="rect1074"
         width="0.37797621"
         height="42.333332"
         x="115.83415"
         y="38.780354" />
      <circle
         r="1.8898809"
         cy="35.440472"
         cx="116.0387"
         id="circle1076"
         style="fill:#36a9f3;fill-opacity:1;stroke:#3d98d3;stroke-width:3.9690001;stroke-linecap:round;stroke-linejoin:round;stroke-miterlimit:4;stroke-dasharray:none;stroke-opacity:1" />
    </g>
    <g
       id="g1084"
       transform="translate(32.883929,9.8273806)">
      <rect
         y="38.780354"
         x="115.83415"
         height="42.333332"
         width="0.37797621"
         id="rect1080"
         style="fill:#3d98d3;fill-opacity:1;stroke:#3d98d3;stroke-width:3.9690001;stroke-linecap:round;stroke-linejoin:round;stroke-miterlimit:4;stroke-dasharray:none;stroke-opacity:1" />
      <circle
         style="fill:#36a9f3;fill-opacity:1;stroke:#3d98d3;stroke-width:3.9690001;stroke-linecap:round;stroke-linejoin:round;stroke-miterlimit:4;stroke-dasharray:none;stroke-opacity:1"
         id="circle1082"
         cx="116.0387"
         cy="35.440472"
         r="1.8898809" />
    </g>
    <rect
       style="fill:#36a9f3;fill-opacity:1;stroke:#3d98d3;stroke-width:7.90167856;stroke-linecap:round;stroke-linejoin:round;stroke-miterlimit:4;stroke-dasharray:none;stroke-opacity:1"
       id="rect815"
       width="128.16652"
       height="97.607239"
       x="34.015404"
       y="56.799168" />
    <path
       style="fill:#d38d5f;fill-opacity:1;stroke:#b55822;stroke-width:3.96875;stroke-linecap:round;stroke-linejoin:round;stroke-miterlimit:4;stroke-dasharray:none;stroke-opacity:1"
       d="m 97.476947,73.299914 c -20.878379,0.302745 -30.07993,11.467314 -29.855776,30.278596 0.137592,11.13527 -0.396206,16.43447 9.795808,22.7349 1.944172,6.59124 10.754209,11.34122 20.976497,11.30958 9.612334,-0.0419 17.986524,-4.31389 20.426654,-10.42034 11.192,-6.22223 18.01073,-17.2211 18.02165,-29.069592 l -5.88893,6.215272 C 130.50459,85.540618 118.35497,72.997303 97.476947,73.299914 Z"
       id="path831"
       inkscape:connector-curvature="0"
       sodipodi:nodetypes="cccccccc" />
    <g
       id="g985"
       transform="translate(-1.0583333,1.5875)">
      <path
         style="fill:#d38d5f;fill-opacity:1;stroke:#b55822;stroke-width:3.55481744;stroke-linecap:round;stroke-linejoin:round;stroke-miterlimit:4;stroke-dasharray:none;stroke-opacity:1"
         d="m 124.72221,107.06769 c 0,13.44913 0.48366,25.72098 7.68995,24.74741 5.4005,-0.72961 1.65987,-3.8204 10.26351,-17.87524 3.58209,-5.85167 1.15325,-15.431061 -2.20266,-21.988316 -3.16109,-6.176586 -6.60122,-13.392713 -15.58627,-13.796834 -18.8194,-0.846443 -0.005,14.942227 -0.16147,28.38826"
         id="path906"
         inkscape:connector-curvature="0"
         sodipodi:nodetypes="cssasc" />
      <path
         style="fill:#d38d5f;fill-opacity:1;stroke:#d38d5f;stroke-width:3.14391685;stroke-linecap:round;stroke-linejoin:round;stroke-miterlimit:4;stroke-dasharray:none;stroke-opacity:1"
         inkscape:transform-center-x="3.4552453e-05"
         inkscape:transform-center-y="-2.4952602"
         d="m 127.51479,87.447697 c 0,3.505887 2.72854,6.517134 0.0495,6.552671 -2.67902,0.03551 -16.98255,-5.05606 -17.03685,-8.561227 -0.0543,-3.505165 3.00677,-4.218863 5.68469,-4.325452 0.95242,0.05864 16.50831,3.158177 11.30264,6.334008"
         id="path919"
         inkscape:connector-curvature="0"
         sodipodi:nodetypes="csscc" />
    </g>
    <path
       style="fill:#000000;fill-opacity:1;stroke:#000000;stroke-width:5.29166651;stroke-linecap:round;stroke-linejoin:round;stroke-miterlimit:4;stroke-dasharray:none;stroke-opacity:1"
       id="path835"
       sodipodi:type="arc"
       sodipodi:cx="84.991707"
       sodipodi:cy="104.56593"
       sodipodi:rx="4.2763124"
       sodipodi:ry="4.2763124"
       sodipodi:start="0"
       sodipodi:end="6.2617178"
       sodipodi:open="true"
       d="m 89.268019,104.56593 a 4.2763124,4.2763124 0 0 1 -4.253362,4.27625 4.2763124,4.2763124 0 0 1 -4.299016,-4.23035 4.2763124,4.2763124 0 0 1 4.207217,-4.32165 4.2763124,4.2763124 0 0 1 4.344176,4.18396" />
    <path
       transform="matrix(1.1450137,0,0,0.59264449,-13.577639,47.191195)"
       style="fill:#0e0e0e;fill-opacity:1;stroke:#000000;stroke-width:5.29200029;stroke-linecap:round;stroke-linejoin:round;stroke-miterlimit:4;stroke-dasharray:none;stroke-opacity:1"
       inkscape:transform-center-x="0.0095138437"
       inkscape:transform-center-y="0.54585572"
       d="m 101.29515,118.46395 -1.59531,2.79194 -1.595308,2.79194 -1.620236,-2.77755 -1.620235,-2.77754 3.215543,-0.0144 z"
       id="path886" />
    <path
       style="fill:#ffffff;fill-opacity:1;stroke:#ffffff;stroke-width:2.56601238;stroke-linecap:round;stroke-linejoin:round;stroke-miterlimit:4;stroke-dasharray:none;stroke-opacity:1"
       id="path891"
       sodipodi:type="arc"
       sodipodi:cx="87.450539"
       sodipodi:cy="103.44099"
       sodipodi:rx="0.22904466"
       sodipodi:ry="1.1732121"
       sodipodi:start="0"
       sodipodi:end="6.2617178"
       sodipodi:open="true"
       d="m 87.679583,103.44099 a 0.22904466,1.1732121 0 0 1 -0.227815,1.17319 0.22904466,1.1732121 0 0 1 -0.230261,-1.1606 0.22904466,1.1732121 0 0 1 0.225344,-1.18565 0.22904466,1.1732121 0 0 1 0.23268,1.14787" />
    <path
       d="m 113.83647,104.56593 a 4.2763124,4.2763124 0 0 1 -4.25336,4.27625 4.2763124,4.2763124 0 0 1 -4.29902,-4.23035 4.2763124,4.2763124 0 0 1 4.20722,-4.32165 4.2763124,4.2763124 0 0 1 4.34417,4.18396"
       sodipodi:open="true"
       sodipodi:end="6.2617178"
       sodipodi:start="0"
       sodipodi:ry="4.2763124"
       sodipodi:rx="4.2763124"
       sodipodi:cy="104.56593"
       sodipodi:cx="109.56016"
       sodipodi:type="arc"
       id="path893"
       style="fill:#000000;fill-opacity:1;stroke:#000000;stroke-width:5.29166651;stroke-linecap:round;stroke-linejoin:round;stroke-miterlimit:4;stroke-dasharray:none;stroke-opacity:1" />
    <path
       d="m 112.24803,103.44099 a 0.22904466,1.1732121 0 0 1 -0.22781,1.17319 0.22904466,1.1732121 0 0 1 -0.23026,-1.1606 0.22904466,1.1732121 0 0 1 0.22534,-1.18565 0.22904466,1.1732121 0 0 1 0.23268,1.14787"
       sodipodi:open="true"
       sodipodi:end="6.2617178"
       sodipodi:start="0"
       sodipodi:ry="1.1732121"
       sodipodi:rx="0.22904466"
       sodipodi:cy="103.44099"
       sodipodi:cx="112.01899"
       sodipodi:type="arc"
       id="path895"
       style="fill:#ffffff;fill-opacity:1;stroke:#ffffff;stroke-width:2.56601238;stroke-linecap:round;stroke-linejoin:round;stroke-miterlimit:4;stroke-dasharray:none;stroke-opacity:1" />
    <g
       id="g991"
       transform="matrix(-1,0,0,1,196.37326,2.1166667)">
      <path
         sodipodi:nodetypes="cssasc"
         inkscape:connector-curvature="0"
         id="path987"
         d="m 124.72221,107.06769 c 0,13.44913 0.48366,25.72098 7.68995,24.74741 5.4005,-0.72961 1.65987,-3.8204 10.26351,-17.87524 3.58209,-5.85167 1.15325,-15.431061 -2.20266,-21.988316 -3.16109,-6.176586 -6.60122,-13.392713 -15.58627,-13.796834 -18.8194,-0.846443 -0.005,14.942227 -0.16147,28.38826"
         style="fill:#d38d5f;fill-opacity:1;stroke:#b55822;stroke-width:3.55481744;stroke-linecap:round;stroke-linejoin:round;stroke-miterlimit:4;stroke-dasharray:none;stroke-opacity:1" />
      <path
         sodipodi:nodetypes="csscc"
         inkscape:connector-curvature="0"
         id="path989"
         d="m 127.51479,87.447697 c 0,3.505887 2.72854,6.517134 0.0495,6.552671 -2.67902,0.03551 -16.98255,-5.05606 -17.03685,-8.561227 -0.0543,-3.505165 3.00677,-4.218863 5.68469,-4.325452 0.95242,0.05864 16.50831,3.158177 11.30264,6.334008"
         inkscape:transform-center-y="-2.4952602"
         inkscape:transform-center-x="3.4552453e-05"
         style="fill:#d38d5f;fill-opacity:1;stroke:#d38d5f;stroke-width:3.14391685;stroke-linecap:round;stroke-linejoin:round;stroke-miterlimit:4;stroke-dasharray:none;stroke-opacity:1" />
    </g>
    <g
       id="g1125"
       transform="translate(1.0583333,-2.6458334)">
      <g
         id="g1120">
        <rect
           y="106.33713"
           x="-49.033337"
           height="8.0327511"
           width="1.2291806"
           id="rect1110"
           style="fill:#3d98d3;fill-opacity:1;stroke:#3d98d3;stroke-width:3.11779571;stroke-linecap:round;stroke-linejoin:round;stroke-miterlimit:4;stroke-dasharray:none;stroke-opacity:1"
           transform="rotate(-90)" />
        <circle
           style="fill:#36a9f3;fill-opacity:1;stroke:#3d98d3;stroke-width:3.9690001;stroke-linecap:round;stroke-linejoin:round;stroke-miterlimit:4;stroke-dasharray:none;stroke-opacity:1"
           id="circle1112"
           cx="-48.403191"
           cy="103.42284"
           transform="rotate(-90)"
           r="1.8898809" />
      </g>
    </g>
    <g
       transform="matrix(-1,0,0,1,191.1065,115.38006)"
       id="g1133">
      <g
         id="g1131">
        <rect
           transform="rotate(-90)"
           style="fill:#3d98d3;fill-opacity:1;stroke:#3d98d3;stroke-width:3.11779571;stroke-linecap:round;stroke-linejoin:round;stroke-miterlimit:4;stroke-dasharray:none;stroke-opacity:1"
           id="rect1127"
           width="1.2291806"
           height="8.0327511"
           x="-49.033337"
           y="106.33713" />
        <circle
           r="1.8898809"
           transform="rotate(-90)"
           cy="103.42284"
           cx="-48.403191"
           id="circle1129"
           style="fill:#36a9f3;fill-opacity:1;stroke:#3d98d3;stroke-width:3.9690001;stroke-linecap:round;stroke-linejoin:round;stroke-miterlimit:4;stroke-dasharray:none;stroke-opacity:1" />
      </g>
    </g>
    <path
       style="color:#000000;font-style:normal;font-variant:normal;font-weight:normal;font-stretch:normal;font-size:medium;line-height:normal;font-family:sans-serif;font-variant-ligatures:normal;font-variant-position:normal;font-variant-caps:normal;font-variant-numeric:normal;font-variant-alternates:normal;font-feature-settings:normal;text-indent:0;text-align:start;text-decoration:none;text-decoration-line:none;text-decoration-style:solid;text-decoration-color:#000000;letter-spacing:normal;word-spacing:normal;text-transform:none;writing-mode:lr-tb;direction:ltr;text-orientation:mixed;dominant-baseline:auto;baseline-shift:baseline;text-anchor:start;white-space:normal;shape-padding:0;clip-rule:nonzero;display:inline;overflow:visible;visibility:visible;opacity:1;isolation:auto;mix-blend-mode:normal;color-interpolation:sRGB;color-interpolation-filters:linearRGB;solid-color:#000000;solid-opacity:1;vector-effect:none;fill:#000000;fill-opacity:1;fill-rule:nonzero;stroke:none;stroke-width:1.78116286;stroke-linecap:butt;stroke-linejoin:miter;stroke-miterlimit:4;stroke-dasharray:none;stroke-dashoffset:0;stroke-opacity:1;color-rendering:auto;image-rendering:auto;shape-rendering:auto;text-rendering:auto;enable-background:accumulate"
       d="m 98.753394,119.11995 -0.612407,7.77673 0.532429,0.23249 c 0,0 0.876477,0.38497 1.980454,0.7276 1.10399,0.34263 2.39763,0.72003 3.68251,0.47342 1.43137,-0.27473 2.57238,-1.21029 3.52321,-2.03824 0.95084,-0.82795 -0.54419,-1.8769 -1.39924,-1.13236 -0.85505,0.74454 -2.01396,1.47618 -2.55738,1.58048 -0.39693,0.0762 -1.6015,-0.11073 -2.57603,-0.41319 -0.67899,-0.21073 -0.9302,-0.3295 -1.22272,-0.44933 z"
       id="path1136"
       inkscape:connector-curvature="0"
       sodipodi:nodetypes="cccscsccccc" />
    <path
       style="color:#000000;font-style:normal;font-variant:normal;font-weight:normal;font-stretch:normal;font-size:medium;line-height:normal;font-family:sans-serif;font-variant-ligatures:normal;font-variant-position:normal;font-variant-caps:normal;font-variant-numeric:normal;font-variant-alternates:normal;font-feature-settings:normal;text-indent:0;text-align:start;text-decoration:none;text-decoration-line:none;text-decoration-style:solid;text-decoration-color:#000000;letter-spacing:normal;word-spacing:normal;text-transform:none;writing-mode:lr-tb;direction:ltr;text-orientation:mixed;dominant-baseline:auto;baseline-shift:baseline;text-anchor:start;white-space:normal;shape-padding:0;clip-rule:nonzero;display:inline;overflow:visible;visibility:visible;opacity:1;isolation:auto;mix-blend-mode:normal;color-interpolation:sRGB;color-interpolation-filters:linearRGB;solid-color:#000000;solid-opacity:1;vector-effect:none;fill:#b55822;fill-opacity:1;fill-rule:nonzero;stroke:none;stroke-width:1.85208333;stroke-linecap:butt;stroke-linejoin:miter;stroke-miterlimit:4;stroke-dasharray:none;stroke-dashoffset:0;stroke-opacity:1;color-rendering:auto;image-rendering:auto;shape-rendering:auto;text-rendering:auto;enable-background:accumulate"
       d="m 98.400391,110.94141 c -4.242954,-0.0326 -10.014432,3.32388 -10.819704,3.77055 -0.805272,0.44668 3.355662,-2.01641 10.790404,-1.91899 7.434739,0.0974 12.122019,2.59305 11.331399,2.11395 -0.79062,-0.47911 -7.05914,-3.93296 -11.302099,-3.96551 z"
       id="path1144"
       inkscape:connector-curvature="0"
       sodipodi:nodetypes="sssss" />
    <path
       sodipodi:nodetypes="cccscsccccc"
       inkscape:connector-curvature="0"
       id="path1155"
       d="m 99.085986,119.11995 0.612407,7.77673 -0.532427,0.23249 c 0,0 -0.876474,0.38497 -1.980448,0.7276 -1.103984,0.34263 -2.397618,0.72003 -3.682489,0.47342 -1.431364,-0.27473 -2.572366,-1.21029 -3.523196,-2.03824 -0.95084,-0.82795 0.54419,-1.8769 1.39924,-1.13236 0.855042,0.74454 2.013946,1.47618 2.557363,1.58048 0.396927,0.0762 1.601491,-0.11073 2.576015,-0.41319 0.678987,-0.21073 0.930194,-0.3295 1.222714,-0.44933 z"
       style="color:#000000;font-style:normal;font-variant:normal;font-weight:normal;font-stretch:normal;font-size:medium;line-height:normal;font-family:sans-serif;font-variant-ligatures:normal;font-variant-position:normal;font-variant-caps:normal;font-variant-numeric:normal;font-variant-alternates:normal;font-feature-settings:normal;text-indent:0;text-align:start;text-decoration:none;text-decoration-line:none;text-decoration-style:solid;text-decoration-color:#000000;letter-spacing:normal;word-spacing:normal;text-transform:none;writing-mode:lr-tb;direction:ltr;text-orientation:mixed;dominant-baseline:auto;baseline-shift:baseline;text-anchor:start;white-space:normal;shape-padding:0;clip-rule:nonzero;display:inline;overflow:visible;visibility:visible;opacity:1;isolation:auto;mix-blend-mode:normal;color-interpolation:sRGB;color-interpolation-filters:linearRGB;solid-color:#000000;solid-opacity:1;vector-effect:none;fill:#000000;fill-opacity:1;fill-rule:nonzero;stroke:none;stroke-width:1.78116286;stroke-linecap:butt;stroke-linejoin:miter;stroke-miterlimit:4;stroke-dasharray:none;stroke-dashoffset:0;stroke-opacity:1;color-rendering:auto;image-rendering:auto;shape-rendering:auto;text-rendering:auto;enable-background:accumulate" />
  </g>
</svg>
